<?xml version="1.0" standalone="no"?>
<!DOCTYPE svg PUBLIC "-//W3C//DTD SVG 20010904//EN"
 "http://www.w3.org/TR/2001/REC-SVG-20010904/DTD/svg10.dtd">
<svg version="1.0" xmlns="../../../external.html?link=http://www.w3.org/2000/svg"
 width="378.000000pt" height="378.000000pt" viewBox="0 0 378.000000 378.000000"
 preserveAspectRatio="xMidYMid meet">
<metadata>
Created by potrace 1.11, written by Peter Selinger 2001-2013
</metadata>
<g transform="translate(0.000000,378.000000) scale(0.100000,-0.100000)"
fill="#000000" stroke="none">
<path d="M1110 3772 c-19 -2 -41 -9 -49 -15 -12 -10 -13 -9 -6 2 6 11 2 10
-16 -2 -13 -9 -33 -17 -46 -17 -28 0 -158 -67 -203 -105 -69 -59 -190 -186
-206 -217 -9 -18 -23 -39 -32 -47 -19 -20 -87 -166 -118 -254 -13 -38 -28
-105 -35 -150 -14 -102 -14 -340 0 -366 6 -11 10 -30 9 -43 -1 -13 4 -39 11
-59 6 -20 11 -41 10 -45 -6 -22 53 -188 104 -294 12 -25 22 -47 22 -50 1 -5
70 -144 92 -185 6 -11 30 -58 53 -105 23 -47 48 -90 55 -96 8 -6 19 -22 25
-35 16 -37 35 -67 53 -87 10 -10 17 -24 17 -30 0 -7 5 -12 10 -12 6 0 10 -6
10 -14 0 -8 6 -21 13 -28 18 -19 117 -167 117 -176 0 -4 12 -20 26 -36 25 -26
104 -160 104 -176 0 -5 -62 -59 -135 -116 -11 -8 -14 -12 -6 -8 9 5 12 3 7 -4
-4 -7 -12 -12 -18 -12 -32 0 -187 -215 -180 -249 2 -8 -1 -10 -9 -5 -9 5 -10
2 -6 -9 3 -10 2 -17 -3 -17 -6 0 -10 -14 -10 -31 0 -17 -4 -28 -10 -24 -5 3
-12 -7 -15 -22 -3 -15 -10 -46 -15 -68 -15 -67 -6 -233 17 -297 38 -103 121
-206 176 -218 18 -4 31 -12 30 -18 -6 -28 163 -36 252 -12 69 19 99 33 134 66
13 13 28 21 32 18 9 -5 77 71 92 104 5 12 15 22 21 22 15 0 68 89 60 101 -3 5
0 16 6 24 7 8 9 15 5 15 -4 0 -1 8 6 17 12 15 12 16 -1 8 -12 -6 -12 -5 -3 5
6 7 9 19 6 28 -4 8 -2 13 3 9 12 -7 14 11 14 136 0 70 -4 104 -15 121 -8 12
-17 47 -19 77 -5 58 -40 161 -77 223 -18 31 -20 39 -8 47 23 14 234 90 260 93
13 2 42 11 64 20 22 10 50 19 62 19 13 1 23 6 23 11 0 4 7 5 16 2 8 -3 13 -2
10 3 -5 7 33 21 99 36 84 20 278 100 420 174 618 320 991 800 989 1276 -1 201
-68 433 -168 583 -56 84 -173 198 -268 259 -60 39 -228 111 -228 98 0 -2 -10
-1 -23 4 -62 24 -237 30 -319 12 -136 -31 -278 -107 -391 -210 -66 -60 -92
-88 -153 -159 -11 -14 -26 -22 -32 -18 -13 8 -62 102 -67 127 -4 21 -50 94
-84 135 -14 17 -32 39 -39 50 -7 10 -9 12 -5 4 4 -8 -22 14 -58 50 -64 65
-163 125 -223 136 -16 3 -33 7 -37 9 -19 13 -139 22 -199 17z m188 -271 c104
-54 122 -65 122 -78 0 -7 7 -13 15 -13 8 0 15 -6 15 -14 0 -8 5 -18 12 -22 7
-5 8 -2 3 7 -5 8 -4 11 1 6 5 -5 8 -12 8 -15 -1 -4 8 -20 20 -37 28 -40 53
-82 73 -125 24 -52 92 -250 84 -246 -4 3 -13 -4 -20 -16 -7 -11 -8 -17 -2 -13
6 3 11 1 11 -4 0 -6 -6 -11 -14 -11 -18 0 -23 -16 -21 -63 2 -23 10 -43 21
-52 11 -8 15 -15 9 -15 -5 0 8 -10 29 -20 53 -27 97 -26 127 3 43 43 79 89 79
103 0 8 6 14 13 14 17 1 49 48 41 62 -4 7 -3 8 4 4 6 -3 16 3 22 15 10 17 9
20 -2 14 -7 -3 -6 -1 3 7 9 7 17 16 17 21 1 4 5 8 10 9 4 1 26 26 50 55 23 29
50 57 60 62 13 8 13 10 3 11 -10 0 -5 10 14 30 15 16 32 27 36 24 4 -2 24 10
45 28 20 18 48 44 63 57 65 57 184 100 296 105 17 0 33 6 37 11 5 6 8 6 8 -1
0 -6 10 -9 24 -7 41 8 166 -38 243 -89 97 -66 189 -167 238 -264 21 -44 40
-83 42 -89 1 -5 9 -35 17 -65 35 -128 22 -315 -34 -482 -72 -214 -237 -443
-399 -554 -36 -25 -97 -67 -136 -93 -75 -52 -361 -201 -386 -201 -8 0 -20 -5
-25 -10 -6 -6 -20 -12 -31 -14 -11 -3 -45 -14 -74 -26 -30 -12 -70 -28 -89
-35 -19 -7 -78 -30 -130 -50 -52 -20 -140 -52 -195 -70 -55 -18 -120 -42 -145
-53 -98 -43 -160 -60 -160 -43 0 7 -4 10 -8 7 -5 -3 -19 18 -32 47 -13 28 -67
116 -119 195 -53 79 -105 158 -115 175 -17 29 -40 63 -115 176 -126 186 -274
551 -297 731 -1 14 -6 36 -10 49 -5 17 -4 22 4 17 9 -5 10 -1 3 16 -13 36 -10
211 6 286 16 79 41 151 60 173 7 8 13 26 13 38 0 12 4 19 10 16 5 -3 7 0 4 8
-3 8 1 21 8 28 8 8 23 31 36 52 27 46 35 57 92 116 86 88 114 104 220 126 90
18 129 15 188 -14z m-39 -2615 c6 -8 11 -18 9 -22 -1 -5 4 -25 11 -44 8 -19
15 -37 16 -40 1 -3 7 -18 13 -33 7 -16 10 -32 7 -37 -3 -5 -1 -11 4 -14 11 -7
25 -108 23 -171 -3 -80 -29 -143 -79 -192 -98 -95 -202 -104 -246 -20 -36 69
-45 134 -30 216 8 42 18 78 22 81 4 3 13 24 20 47 8 23 17 40 21 38 4 -2 15
13 25 34 9 22 35 57 56 79 21 22 35 43 31 48 -4 4 -2 4 4 1 6 -4 22 5 34 18
27 28 42 31 59 11z m161 -729 c0 -2 -12 -14 -27 -28 l-28 -24 24 28 c23 25 31
32 31 24z"/>
<path d="M1830 2805 c-7 -9 -10 -18 -7 -21 3 -3 10 4 17 15 13 25 8 27 -10 6z"/>
</g>
</svg>
